#Comment line ignore any data following # character 
#Hierarchical Translation and Rotation (.htr) file 
[Header]	
#Header keywords are followed by a single value 
FileType HTR		#Single word string
DataType HTRS		#Translation followed by rotation and scale data
FileVersion 1		#integer
NumSegments 84		#integer
NumFrames 2		#integer
DataFrameRate 30		#integer, data frame rate in this file
EulerRotationOrder ZYX
CalibrationUnits mm
RotationUnits Degrees
GlobalAxisofGravity Y
BoneLengthAxis Y
ScaleFactor 1.00
[SegmentNames&Hierarchy]
#CHILD	PARENT
MASTER GLOBAL
root MASTER
chest root
L_mid_tent01 root
R_mid_tent01 root
spine01 root
Bip01_Neck chest
L_humerus chest
R_humerus chest
weapon_bone chest
Bip01_Head Bip01_Neck
eye_left_bone Bip01_Head
eye_right_bone Bip01_Head
L_forearm L_humerus
L_front_hand L_forearm
L_weapon_bone L_forearm
L_front_hand01_01 L_front_hand
L_front_hand02_01 L_front_hand
L_front_hand03_01 L_front_hand
L_front_hand01_02 L_front_hand01_01
L_front_hand02_02 L_front_hand02_01
L_front_hand03_02 L_front_hand03_01
R_forearm R_humerus
R_front_hand R_forearm
R_weapon_bone R_forearm
R_front_hand01_01 R_front_hand
R_front_hand02_01 R_front_hand
R_front_hand03_01 R_front_hand
R_front_hand01_02 R_front_hand01_01
R_front_hand02_02 R_front_hand02_01
R_front_hand03_02 R_front_hand03_01
null_rope01_connect L_mid_tent01
Rope1_Seg01 null_rope01_connect
Rope1_Seg02 Rope1_Seg01
Rope1_Seg03 Rope1_Seg02
Rope1_Seg04 Rope1_Seg03
Rope1_Seg05 Rope1_Seg04
Rope1_Seg06 Rope1_Seg05
Rope1_Seg07 Rope1_Seg06
Rope1_Seg09 Rope1_Seg07
L_mid_hand01 Rope1_Seg09
L_mid_hand02 Rope1_Seg09
L_mid_hand03 Rope1_Seg09
null_rope02_connect R_mid_tent01
Rope2_Seg01 null_rope02_connect
Rope2_Seg02 Rope2_Seg01
Rope2_Seg03 Rope2_Seg02
Rope2_Seg04 Rope2_Seg03
Rope2_Seg05 Rope2_Seg04
Rope2_Seg06 Rope2_Seg05
Rope2_Seg07 Rope2_Seg06
Rope2_Seg09 Rope2_Seg07
R_mid_hand01 Rope2_Seg09
R_mid_hand02 Rope2_Seg09
R_mid_hand03 Rope2_Seg09
spine02 spine01
spine03 spine02
pelvis spine03
null_rope03_connect pelvis
null_rope04_connect pelvis
Rope3_Seg01 null_rope03_connect
Rope3_Seg02 Rope3_Seg01
Rope3_Seg03 Rope3_Seg02
Rope3_Seg04 Rope3_Seg03
Rope3_Seg05 Rope3_Seg04
Rope3_Seg06 Rope3_Seg05
Rope3_Seg07 Rope3_Seg06
Rope3_Seg08 Rope3_Seg07
Rope3_Seg09 Rope3_Seg08
R_rear_hand01 Rope3_Seg09
R_rear_hand02 Rope3_Seg09
R_rear_hand03 Rope3_Seg09
Rope4_Seg01 null_rope04_connect
Rope4_Seg02 Rope4_Seg01
Rope4_Seg03 Rope4_Seg02
Rope4_Seg04 Rope4_Seg03
Rope4_Seg05 Rope4_Seg04
Rope4_Seg06 Rope4_Seg05
Rope4_Seg07 Rope4_Seg06
Rope4_Seg08 Rope4_Seg07
Rope4_Seg09 Rope4_Seg08
L_rear_hand01 Rope4_Seg09
L_rear_hand02 Rope4_Seg09
L_rear_hand03 Rope4_Seg09
[BasePosition]
#SegmentName Tx, Ty, Tz, Rx, Ry, Rz, BoneLength
MASTER 0.000000 0.000000 0.000000 -90.000000 0.000000 0.000000 10.000000 
root 0.000000 0.000000 0.000000 0.000000 0.000000 0.000000 10.000000 
chest 0.000000 0.000000 0.000000 0.000000 0.000000 0.000000 10.000000 
L_mid_tent01 0.000000 0.000000 0.000000 0.000000 0.000000 0.000000 10.000000 
R_mid_tent01 0.000000 0.000000 0.000000 0.000000 0.000000 0.000000 10.000000 
spine01 0.000000 0.000000 0.000000 0.000000 0.000000 0.000000 10.000000 
Bip01_Neck 0.000000 0.000000 0.000000 0.000000 0.000000 0.000000 10.000000 
L_humerus 0.000000 0.000000 0.000000 0.000000 0.000000 0.000000 10.000000 
R_humerus 0.000000 0.000000 0.000000 0.000000 0.000000 0.000000 10.000000 
weapon_bone 0.000000 0.000000 0.000000 0.000000 0.000000 0.000000 10.000000 
Bip01_Head 0.000000 0.000000 0.000000 0.000000 0.000000 0.000000 10.000000 
eye_left_bone 0.000000 0.000000 0.000000 0.000000 0.000000 0.000000 10.000000 
eye_right_bone 0.000000 0.000000 0.000000 0.000000 0.000000 0.000000 10.000000 
L_forearm 0.000000 0.000000 0.000000 0.000000 0.000000 0.000000 10.000000 
L_front_hand 0.000000 0.000000 0.000000 0.000000 0.000000 0.000000 10.000000 
L_weapon_bone 0.000000 0.000000 0.000000 0.000000 0.000000 0.000000 10.000000 
L_front_hand01_01 0.000000 0.000000 0.000000 0.000000 0.000000 0.000000 10.000000 
L_front_hand02_01 0.000000 0.000000 0.000000 0.000000 0.000000 0.000000 10.000000 
L_front_hand03_01 0.000000 0.000000 0.000000 0.000000 0.000000 0.000000 10.000000 
L_front_hand01_02 0.000000 0.000000 0.000000 0.000000 0.000000 0.000000 10.000000 
L_front_hand02_02 0.000000 0.000000 0.000000 0.000000 0.000000 0.000000 10.000000 
L_front_hand03_02 0.000000 0.000000 0.000000 0.000000 0.000000 0.000000 10.000000 
R_forearm 0.000000 0.000000 0.000000 0.000000 0.000000 0.000000 10.000000 
R_front_hand 0.000000 0.000000 0.000000 0.000000 0.000000 0.000000 10.000000 
R_weapon_bone 0.000000 0.000000 0.000000 0.000000 0.000000 0.000000 10.000000 
R_front_hand01_01 0.000000 0.000000 0.000000 0.000000 0.000000 0.000000 10.000000 
R_front_hand02_01 0.000000 0.000000 0.000000 0.000000 0.000000 0.000000 10.000000 
R_front_hand03_01 0.000000 0.000000 0.000000 0.000000 0.000000 0.000000 10.000000 
R_front_hand01_02 0.000000 0.000000 0.000000 0.000000 0.000000 0.000000 10.000000 
R_front_hand02_02 0.000000 0.000000 0.000000 0.000000 0.000000 0.000000 10.000000 
R_front_hand03_02 0.000000 0.000000 0.000000 0.000000 0.000000 0.000000 10.000000 
null_rope01_connect 0.000000 0.000000 0.000000 0.000000 0.000000 0.000000 10.000000 
Rope1_Seg01 0.000000 0.000000 0.000000 0.000000 0.000000 0.000000 10.000000 
Rope1_Seg02 0.000000 0.000000 0.000000 0.000000 0.000000 0.000000 10.000000 
Rope1_Seg03 0.000000 0.000000 0.000000 0.000000 0.000000 0.000000 10.000000 
Rope1_Seg04 0.000000 0.000000 0.000000 0.000000 0.000000 0.000000 10.000000 
Rope1_Seg05 0.000000 0.000000 0.000000 0.000000 0.000000 0.000000 10.000000 
Rope1_Seg06 0.000000 0.000000 0.000000 0.000000 0.000000 0.000000 10.000000 
Rope1_Seg07 0.000000 0.000000 0.000000 0.000000 0.000000 0.000000 10.000000 
Rope1_Seg09 0.000000 0.000000 0.000000 0.000000 0.000000 0.000000 10.000000 
L_mid_hand01 0.000000 0.000000 0.000000 0.000000 0.000000 0.000000 10.000000 
L_mid_hand02 0.000000 0.000000 0.000000 0.000000 0.000000 0.000000 10.000000 
L_mid_hand03 0.000000 0.000000 0.000000 0.000000 0.000000 0.000000 10.000000 
null_rope02_connect 0.000000 0.000000 0.000000 0.000000 0.000000 0.000000 10.000000 
Rope2_Seg01 0.000000 0.000000 0.000000 0.000000 0.000000 0.000000 10.000000 
Rope2_Seg02 0.000000 0.000000 0.000000 0.000000 0.000000 0.000000 10.000000 
Rope2_Seg03 0.000000 0.000000 0.000000 0.000000 0.000000 0.000000 10.000000 
Rope2_Seg04 0.000000 0.000000 0.000000 0.000000 0.000000 0.000000 10.000000 
Rope2_Seg05 0.000000 0.000000 0.000000 0.000000 0.000000 0.000000 10.000000 
Rope2_Seg06 0.000000 0.000000 0.000000 0.000000 0.000000 0.000000 10.000000 
Rope2_Seg07 0.000000 0.000000 0.000000 0.000000 0.000000 0.000000 10.000000 
Rope2_Seg09 0.000000 0.000000 0.000000 0.000000 0.000000 0.000000 10.000000 
R_mid_hand01 0.000000 0.000000 0.000000 0.000000 0.000000 0.000000 10.000000 
R_mid_hand02 0.000000 0.000000 0.000000 0.000000 0.000000 0.000000 10.000000 
R_mid_hand03 0.000000 0.000000 0.000000 0.000000 0.000000 0.000000 10.000000 
spine02 0.000000 0.000000 0.000000 0.000000 0.000000 0.000000 10.000000 
spine03 0.000000 0.000000 0.000000 0.000000 0.000000 0.000000 10.000000 
pelvis 0.000000 0.000000 0.000000 0.000000 0.000000 0.000000 10.000000 
null_rope03_connect 0.000000 0.000000 0.000000 0.000000 0.000000 0.000000 10.000000 
null_rope04_connect 0.000000 0.000000 0.000000 0.000000 0.000000 0.000000 10.000000 
Rope3_Seg01 0.000000 0.000000 0.000000 0.000000 0.000000 0.000000 10.000000 
Rope3_Seg02 0.000000 0.000000 0.000000 0.000000 0.000000 0.000000 10.000000 
Rope3_Seg03 0.000000 0.000000 0.000000 0.000000 0.000000 0.000000 10.000000 
Rope3_Seg04 0.000000 0.000000 0.000000 0.000000 0.000000 0.000000 10.000000 
Rope3_Seg05 0.000000 0.000000 0.000000 0.000000 0.000000 0.000000 10.000000 
Rope3_Seg06 0.000000 0.000000 0.000000 0.000000 0.000000 0.000000 10.000000 
Rope3_Seg07 0.000000 0.000000 0.000000 0.000000 0.000000 0.000000 10.000000 
Rope3_Seg08 0.000000 0.000000 0.000000 0.000000 0.000000 0.000000 10.000000 
Rope3_Seg09 0.000000 0.000000 0.000000 0.000000 0.000000 0.000000 10.000000 
R_rear_hand01 0.000000 0.000000 0.000000 0.000000 0.000000 0.000000 10.000000 
R_rear_hand02 0.000000 0.000000 0.000000 0.000000 0.000000 0.000000 10.000000 
R_rear_hand03 0.000000 0.000000 0.000000 0.000000 0.000000 0.000000 10.000000 
Rope4_Seg01 0.000000 0.000000 0.000000 0.000000 0.000000 0.000000 10.000000 
Rope4_Seg02 0.000000 0.000000 0.000000 0.000000 0.000000 0.000000 10.000000 
Rope4_Seg03 0.000000 0.000000 0.000000 0.000000 0.000000 0.000000 10.000000 
Rope4_Seg04 0.000000 0.000000 0.000000 0.000000 0.000000 0.000000 10.000000 
Rope4_Seg05 0.000000 0.000000 0.000000 0.000000 0.000000 0.000000 10.000000 
Rope4_Seg06 0.000000 0.000000 0.000000 0.000000 0.000000 0.000000 10.000000 
Rope4_Seg07 0.000000 0.000000 0.000000 0.000000 0.000000 0.000000 10.000000 
Rope4_Seg08 0.000000 0.000000 0.000000 0.000000 0.000000 0.000000 10.000000 
Rope4_Seg09 0.000000 0.000000 0.000000 0.000000 0.000000 0.000000 10.000000 
L_rear_hand01 0.000000 0.000000 0.000000 0.000000 0.000000 0.000000 10.000000 
L_rear_hand02 0.000000 0.000000 0.000000 0.000000 0.000000 0.000000 10.000000 
L_rear_hand03 0.000000 0.000000 0.000000 0.000000 0.000000 0.000000 10.000000 
#Beginning of Data. Separated by tabs
#Fr	Tx	Ty	Tz	Rx	Ry	Rz	SF
[MASTER]
4 0.000000 0.000000 0.000000 0.001660 0.001660 0.001660 0.000000
5 0.000000 0.000000 0.000000 0.001660 0.001660 0.001660 0.000000
[root]
4 -81.483177 -62.822124 1497.228516 -86.872025 -5.528430 -89.825851 1500.759521
5 -73.653633 -62.822124 1500.329590 -87.421227 -6.072840 -89.822441 1503.449585
[chest]
4 -84.512650 -34.090519 0.000000 -0.307809 -0.743092 156.385437 91.129311
5 -84.512650 -34.090519 0.000000 -0.307809 -0.743092 156.385437 91.129311
[L_mid_tent01]
4 23.228750 24.509907 -223.761200 -9.439425 13.485767 -4.940154 226.294907
5 23.228750 24.509907 -223.761200 -9.939089 12.598299 -6.914011 226.294907
[R_mid_tent01]
4 23.228794 24.509907 226.238495 -158.959869 -17.361761 -26.363266 228.744751
5 23.228794 24.509907 226.238495 -158.528809 -20.589956 -27.689224 228.744751
[spine01]
4 -0.361383 -0.195265 0.000000 0.001815 0.001488 11.320962 0.410763
5 -0.361383 -0.195265 0.000000 0.001815 0.001488 11.320962 0.410763
[Bip01_Neck]
4 165.484543 71.581718 0.000119 175.896118 1.177290 24.871183 180.302734
5 165.484543 71.581718 0.000119 175.896118 1.177290 24.871183 180.302734
[L_humerus]
4 -13.983130 -135.272980 -120.471481 149.628769 9.923238 -156.213867 181.680161
5 -13.983130 -135.272980 -120.471481 149.628754 9.923236 -156.213867 181.680161
[R_humerus]
4 -13.983309 -135.273102 125.287651 -156.699188 -11.743878 -154.898071 184.909012
5 -13.983309 -135.273102 125.287651 -156.699188 -11.743878 -154.898071 184.909012
[weapon_bone]
4 235.964890 -300.705902 0.000000 0.000000 -89.951546 -128.212341 382.234833
5 235.964890 -300.705902 0.000000 0.000000 -89.951546 -128.212341 382.234833
[Bip01_Head]
4 179.663712 77.989037 -1.800929 3.813939 7.902211 -40.631149 195.868805
5 179.663712 77.989037 -1.800929 3.547204 6.933519 -40.732285 195.868805
[eye_left_bone]
4 -24.626970 125.451866 -64.772606 0.000000 -90.000000 -99.840431 143.318359
5 -24.626970 125.451866 -64.772606 0.000000 -90.000000 -99.840431 143.318359
[eye_right_bone]
4 -24.626970 125.451866 64.327362 0.000000 -89.965736 80.156380 143.117676
5 -24.626970 125.451866 64.327362 0.000000 -89.972023 80.156380 143.117676
[L_forearm]
4 322.776093 0.000000 -0.000119 0.000842 -0.002191 -132.067245 322.776093
5 322.776093 0.000000 -0.000119 0.000842 -0.002191 -132.067245 322.776093
[L_front_hand]
4 241.149185 -0.042021 -3.300071 -91.081680 -1.500604 -39.931389 241.171753
5 241.149185 -0.042021 -3.300071 -62.699062 -1.505202 -39.930611 241.171753
[L_weapon_bone]
4 156.183838 0.000000 0.000000 0.000014 0.000007 0.000001 156.183838
5 156.183838 0.000000 0.000000 0.000014 0.000007 0.000001 156.183838
[L_front_hand01_01]
4 86.095154 20.947098 -0.655860 -0.366594 -0.477154 75.385574 88.609184
5 86.095154 20.947098 -0.655860 -0.357705 -0.483895 74.202728 88.609184
[L_front_hand02_01]
4 86.935165 -11.437475 24.513514 154.399796 -59.883835 -61.369587 91.046425
5 86.935165 -11.437475 24.513514 152.595901 -59.356777 -59.277020 91.046425
[L_front_hand03_01]
4 86.637497 -14.123976 -20.424902 -153.913849 58.118122 -62.702866 90.126129
5 86.637497 -14.123976 -20.424902 -152.241364 57.583202 -60.723087 90.126129
[L_front_hand01_02]
4 71.020905 -0.000179 0.000030 0.000194 0.002339 -80.538689 71.020905
5 71.020905 -0.000179 0.000030 0.000477 0.002298 -66.563339 71.020905
[L_front_hand02_02]
4 71.020927 -0.000119 0.000060 0.000194 0.002339 -80.538689 71.020927
5 71.020927 -0.000119 0.000060 0.000477 0.002298 -66.563339 71.020927
[L_front_hand03_02]
4 71.020905 -0.000060 0.000060 0.000194 0.002339 -80.538689 71.020905
5 71.020905 -0.000060 0.000060 0.000477 0.002298 -66.563339 71.020905
[R_forearm]
4 322.776428 -0.000060 0.000030 0.244684 0.084396 -126.001297 322.776428
5 322.776428 -0.000060 0.000030 0.244684 0.084396 -126.001297 322.776428
[R_front_hand]
4 238.847015 -0.006795 2.210259 -106.303604 0.237906 -48.450821 238.857239
5 238.847015 -0.006795 2.210259 -141.075546 0.237854 -48.450909 238.857239
[R_weapon_bone]
4 155.664093 0.002503 -0.000030 0.003487 0.001180 -90.988930 155.664078
5 155.664093 0.002503 -0.000030 0.003487 0.001180 -90.988930 155.664078
[R_front_hand01_01]
4 87.624611 14.231146 22.918642 -125.680702 -39.114513 24.825493 91.683487
5 87.624611 14.231146 22.918642 -132.169815 -47.615582 34.241886 91.683487
[R_front_hand02_01]
4 89.356956 14.367283 -19.491137 126.912849 37.784214 27.622904 92.579636
5 89.356956 14.367283 -19.491137 133.243790 46.146591 37.051678 92.579636
[R_front_hand03_01]
4 87.286232 -22.307278 -0.143439 -0.081033 -0.448667 -44.721237 90.091743
5 87.286232 -22.307278 -0.143439 0.006171 -0.453377 -55.619980 90.091743
[R_front_hand01_02]
4 71.020905 0.000060 0.000119 0.002345 -0.000105 95.107872 71.020905
5 71.020905 0.000060 0.000119 0.002347 0.000045 87.822044 71.020905
[R_front_hand02_02]
4 71.020844 -0.000030 -0.000119 0.002345 -0.000105 95.107872 71.020836
5 71.020844 -0.000030 -0.000119 0.002347 0.000045 87.822044 71.020836
[R_front_hand03_02]
4 71.020905 0.000000 0.000030 0.002345 -0.000105 95.107872 71.020905
5 71.020905 0.000000 0.000030 0.002347 0.000045 87.822044 71.020905
[null_rope01_connect]
4 328.732483 0.000000 -0.000238 -105.170555 -75.112892 -155.864944 328.732483
5 328.732483 0.000000 -0.000238 -107.680191 -75.373077 -150.726898 328.732483
[Rope1_Seg01]
4 0.000000 0.000000 0.000000 46.186111 -20.058704 -118.475700 0.000000
5 0.000000 0.000000 0.000000 41.390778 -18.258631 -114.930252 0.000000
[Rope1_Seg02]
4 139.999863 -0.000179 0.000000 -0.950786 4.669265 -4.285145 139.999863
5 139.999863 -0.000179 0.000000 -0.895023 5.304837 -5.230374 139.999863
[Rope1_Seg03]
4 139.999924 0.000060 -0.000060 9.900402 1.938252 -11.039199 139.999924
5 139.999924 0.000060 -0.000060 -0.062736 6.703552 -7.870441 139.999924
[Rope1_Seg04]
4 139.999924 -0.000060 -0.000119 -15.230243 4.601307 10.900915 139.999924
5 139.999924 -0.000060 -0.000119 -2.265522 -5.396357 7.968701 139.999924
[Rope1_Seg05]
4 139.999832 0.000119 -0.000060 -11.021531 0.361830 16.419874 139.999832
5 139.999832 0.000119 -0.000060 -1.135440 -5.957370 7.723206 139.999832
[Rope1_Seg06]
4 139.999954 0.000119 -0.000060 -2.533988 -0.875007 5.821421 139.999954
5 139.999954 0.000119 -0.000060 -0.229715 -1.853644 2.374843 139.999954
[Rope1_Seg07]
4 139.999985 0.000060 0.000000 -1.111356 -0.552683 3.039255 139.999985
5 139.999985 0.000060 0.000000 -0.104680 -1.050630 1.347934 139.999985
[Rope1_Seg09]
4 121.602913 0.000119 -0.000089 -89.793175 -1.359789 0.847147 121.602913
5 121.602913 0.000119 -0.000089 -89.793175 -1.359789 0.847147 121.602913
[L_mid_hand01]
4 103.859421 1.038730 8.195221 106.855484 -31.239275 -9.461397 104.187431
5 103.859421 1.038730 8.195221 106.855484 -31.239275 -9.461397 104.187431
[L_mid_hand02]
4 105.572853 -4.139662 -10.864139 -142.331345 25.752670 -28.774628 106.211075
5 105.572853 -4.139662 -10.864139 -142.331345 25.752670 -28.774628 106.211075
[L_mid_hand03]
4 104.641464 17.579376 -3.913581 -16.122810 9.734291 34.223598 106.179977
5 104.641464 17.579376 -3.913581 -16.122810 9.734291 34.223598 106.179977
[null_rope02_connect]
4 328.732849 0.000179 -0.000119 -115.392563 61.323509 -54.692451 328.732849
5 328.732849 0.000179 -0.000119 -108.478004 59.435036 -48.922535 328.732849
[Rope2_Seg01]
4 0.000151 0.000078 -0.000145 65.732292 -38.242249 -83.273666 0.000223
5 0.000150 0.000079 -0.000142 61.210217 -33.945381 -76.697548 0.000221
[Rope2_Seg02]
4 139.999741 -0.000060 -0.000119 5.438954 -1.433452 -12.738739 139.999756
5 139.999741 -0.000060 -0.000119 6.787760 -2.908095 -11.528665 139.999756
[Rope2_Seg03]
4 140.000107 0.000030 0.000000 7.949515 -4.792473 -14.849226 140.000107
5 140.000107 0.000030 0.000000 8.363688 -5.571312 -12.762306 140.000107
[Rope2_Seg04]
4 139.999802 0.000000 -0.000060 9.156918 -10.734615 -15.400622 139.999802
5 139.999802 0.000000 -0.000060 9.069978 -10.240011 -13.369905 139.999802
[Rope2_Seg05]
4 139.999985 -0.000060 0.000119 -0.949794 9.839332 -3.034084 139.999985
5 139.999985 -0.000060 0.000119 0.669188 3.634503 -3.456269 139.999985
[Rope2_Seg06]
4 139.999893 -0.000030 -0.000119 -11.216228 22.411423 3.493689 139.999893
5 139.999893 -0.000030 -0.000119 -4.522649 12.635611 1.532528 139.999893
[Rope2_Seg07]
4 139.999893 0.000060 -0.000060 -8.583633 9.699168 2.423078 139.999893
5 139.999893 0.000060 -0.000060 -2.329974 5.809000 0.116223 139.999893
[Rope2_Seg09]
4 121.338966 0.000089 -0.000060 33.793236 -1.359788 -0.847141 121.338966
5 121.338966 0.000089 -0.000060 33.793236 -1.359788 -0.847141 121.338966
[R_mid_hand01]
4 104.680779 11.144459 -10.335981 -41.523792 25.424656 28.595957 105.778534
5 104.680779 11.144459 -10.335981 -41.523792 25.424656 28.595957 105.778534
[R_mid_hand02]
4 104.070427 2.443552 8.231699 72.847389 -32.746803 10.013901 104.424065
5 104.070427 2.443552 8.231699 72.847389 -32.746803 10.013901 104.424065
[R_mid_hand03]
4 106.028137 -11.221827 -5.996406 -167.901306 10.259192 -37.009720 106.788818
5 106.028137 -11.221827 -5.996406 -167.901306 10.259192 -37.009720 106.788818
[spine02]
4 129.756927 0.001550 0.000119 0.001147 -1.797837 -7.854274 129.756927
5 129.756927 0.001550 0.000119 0.001147 -1.797837 -7.854274 129.756927
[spine03]
4 79.115631 0.000000 -0.000119 1.459971 -2.848092 23.765963 79.115631
5 79.115631 0.000000 -0.000119 1.459971 -2.848092 23.765961 79.115631
[pelvis]
4 169.435242 0.051022 0.000000 -0.000005 0.000003 -4.322055 169.435257
5 169.435242 0.051022 0.000000 -0.000005 0.000003 -4.322055 169.435257
[null_rope03_connect]
4 -1.257226 -2.466202 137.391083 39.258202 -82.911133 33.372532 137.418976
5 -1.257226 -2.466202 137.391083 42.390713 -83.359322 30.777662 137.418976
[null_rope04_connect]
4 -1.259640 -2.480268 -137.844437 39.258202 -82.911133 33.372532 137.872513
5 -1.259640 -2.480268 -137.844437 42.390713 -83.359322 30.777662 137.872513
[Rope3_Seg01]
4 0.000000 0.000000 0.000000 -131.861526 6.290327 -98.213493 0.000000
5 0.000000 0.000000 0.000000 -132.537903 11.395341 -87.578293 0.000000
[Rope3_Seg02]
4 139.999924 -0.000119 0.000060 0.409275 -0.548482 -2.478323 139.999924
5 139.999924 -0.000119 0.000060 0.836962 3.466836 -1.012119 139.999924
[Rope3_Seg03]
4 139.999924 -0.000119 0.000119 0.404462 -0.665856 -2.909131 139.999924
5 139.999924 -0.000119 0.000119 1.036808 4.030035 -1.243665 139.999924
[Rope3_Seg04]
4 139.999924 0.000119 0.000000 0.537458 -0.039299 -3.926209 139.999924
5 139.999924 0.000119 0.000000 1.674748 6.449356 -1.608235 139.999924
[Rope3_Seg05]
4 139.999924 -0.000238 0.000060 0.852881 1.113409 -5.655596 139.999924
5 139.999924 -0.000238 0.000060 3.113877 9.789040 -2.274212 139.999924
[Rope3_Seg06]
4 139.999893 -0.000119 -0.000060 0.131334 -5.503535 -2.079402 139.999893
5 139.999893 -0.000119 -0.000060 0.028852 -2.466261 -1.492947 139.999893
[Rope3_Seg07]
4 139.999771 0.000060 -0.000119 0.066701 -10.097613 1.624330 139.999771
5 139.999771 0.000060 -0.000119 -2.178305 -14.044912 -0.143638 139.999771
[Rope3_Seg08]
4 139.999985 -0.000060 0.000000 0.702318 -5.861948 0.049894 139.999985
5 139.999985 -0.000060 0.000000 -0.079711 -7.591390 -0.865410 139.999985
[Rope3_Seg09]
4 90.185997 -0.000179 -0.000060 89.793228 -1.359877 -0.847183 90.185997
5 90.185997 -0.000179 -0.000060 89.793228 -1.359877 -0.847183 90.185997
[R_rear_hand01]
4 103.366196 -6.073594 -10.757982 -161.551193 16.666374 -30.088671 104.101845
5 103.366196 -6.073594 -10.757982 -161.551193 16.666374 -30.088671 104.101845
[R_rear_hand02]
4 100.509819 12.039542 -7.992327 -34.280552 19.289745 28.875523 101.543350
5 100.509819 12.039542 -7.992327 -34.280552 19.289745 28.875523 101.543350
[R_rear_hand03]
4 101.539970 5.215704 5.435467 83.366440 -30.933914 7.284830 101.819031
5 101.539970 5.215704 5.435467 83.366440 -30.933914 7.284830 101.819031
[Rope4_Seg01]
4 0.000000 0.000000 0.000000 45.513126 2.695577 -116.758423 0.000000
5 0.000000 0.000000 0.000000 49.195427 14.546230 -92.647316 0.000000
[Rope4_Seg02]
4 139.999985 0.000060 0.000119 1.881274 4.096872 12.815486 139.999985
5 139.999985 0.000060 0.000119 -2.711106 -15.540153 7.226003 139.999985
[Rope4_Seg03]
4 139.999924 0.000000 -0.000238 0.269235 1.297585 7.423972 139.999924
5 139.999924 0.000000 -0.000238 -0.049283 -9.115124 3.191206 139.999924
[Rope4_Seg04]
4 139.999985 0.000000 0.000119 -0.105348 -0.186890 4.904509 139.999985
5 139.999985 0.000000 0.000119 0.434252 -5.244660 1.689900 139.999985
[Rope4_Seg05]
4 139.999802 -0.000060 -0.000119 0.105273 2.305519 1.215742 139.999802
5 139.999802 -0.000060 -0.000119 0.112613 0.515552 0.476960 139.999802
[Rope4_Seg06]
4 139.999924 0.000000 0.000060 0.541492 5.454094 -1.037102 139.999924
5 139.999924 0.000000 0.000060 -0.135786 5.067469 -0.197421 139.999924
[Rope4_Seg07]
4 139.999802 0.000000 0.000000 1.500101 9.025072 -2.643750 139.999802
5 139.999802 0.000000 0.000000 0.185605 10.413170 -0.706485 139.999802
[Rope4_Seg08]
4 139.999924 0.000000 0.000119 -0.082532 6.419059 -1.236400 139.999924
5 139.999924 0.000000 0.000119 -0.957614 6.893618 -0.214571 139.999924
[Rope4_Seg09]
4 90.185791 0.000060 0.000060 -135.617828 2.228885 0.850567 90.185791
5 90.185791 0.000060 0.000060 -135.617828 2.228885 0.850567 90.185791
[L_rear_hand01]
4 101.696655 -8.392275 -7.654577 -34.454281 -18.946800 151.655121 102.329041
5 101.696655 -8.392275 -7.654577 -34.454281 -18.946800 151.655121 102.329041
[L_rear_hand02]
4 102.726799 -1.568258 5.773216 83.407906 30.330435 172.796509 102.900848
5 102.726799 -1.568258 5.773216 83.407906 30.330435 172.796509 102.900848
[L_rear_hand03]
4 104.552910 9.721220 -10.420293 -161.379868 -16.473232 -150.512238 105.519653
5 104.552910 9.721220 -10.420293 -161.379868 -16.473232 -150.512238 105.519653
